<?xml version="1.0" encoding="iso-8859-1"?>
<!-- Uploaded to: SVG Repo, www.svgrepo.com, Generator: SVG Repo Mixer Tools -->
<svg version="1.1" id="Layer_1" xmlns="http://www.w3.org/2000/svg" xmlns:xlink="http://www.w3.org/1999/xlink" 
	 viewBox="0 0 512 512" xml:space="preserve">
<circle style="fill:#36A9E1;" cx="256" cy="420.112" r="84.027"/>
<circle style="fill:#FFFFFF;" cx="256" cy="411.717" r="25.207"/>
<g>
	<rect x="96.352" y="243.664" style="fill:#A5C6E3;" width="126.035" height="50.414"/>
	<rect x="289.613" y="243.664" style="fill:#A5C6E3;" width="126.035" height="50.414"/>
</g>
<g>
	<rect x="113.164" style="fill:#1D71B8;" width="92.422" height="243.664"/>
	<rect x="306.414" style="fill:#1D71B8;" width="92.422" height="243.664"/>
</g>
<path style="fill:#1D1D1B;" d="M423.505,301.942v-66.136h-16.804V0h-15.722v235.806h-76.705V0h-15.722v235.806h-16.805v66.136
	h30.895l-30.18,30.18c-8.384-2.526-17.267-3.891-26.463-3.891s-18.079,1.364-26.464,3.891l-30.18-30.18h30.895v-66.136h-16.804V0
	h-15.722v235.806h-76.704V0H105.3v235.806H88.495v66.136h88.629l36.607,36.607c-29.453,15.324-49.615,46.133-49.615,81.567
	C164.116,470.78,205.335,512,256,512c50.664,0,91.884-41.219,91.884-91.884c0-35.433-20.162-66.241-49.615-81.567l36.608-36.607
	H423.505z M104.216,251.528h1.084h108.147h1.083v34.692H104.216V251.528z M332.163,420.116c0,41.996-34.166,76.163-76.163,76.163
	s-76.163-34.166-76.163-76.163s34.166-76.163,76.163-76.163C297.997,343.954,332.163,378.12,332.163,420.116z M297.47,251.528h1.084
	h108.147h1.083v34.692H297.47V251.528z"/>
<g>
	<rect x="138.371" y="210.596" style="fill:#FFFFFF;" width="42.008" height="15.722"/>
	<rect x="331.621" y="210.596" style="fill:#FFFFFF;" width="42.008" height="15.722"/>
</g>
<path style="fill:#1D1D1B;" d="M288.517,459.692l-32.516-17.096l-32.517,17.096l6.21-36.208l-26.307-25.643l36.356-5.282
	L256,359.615l16.258,32.944l36.355,5.282l-26.306,25.643L288.517,459.692z M237.171,408.819l9.414,9.177l-2.223,12.958l11.637-6.118
	l11.637,6.118l-2.222-12.958l9.414-9.177l-13.01-1.891L256,395.139l-5.818,11.789L237.171,408.819z"/>
<rect x="239.199" y="462.666" style="fill:#FFFFFF;" width="33.613" height="15.722"/>
</svg>